<svg width="14" height="16" viewBox="0 0 14 16" fill="none" xmlns="http://www.w3.org/2000/svg">
<g clip-path="url(#clip0_7_109)">
<path d="M2.89428 15.5556C2.45926 15.5556 2.08688 15.3982 1.77713 15.0836C1.46738 14.7689 1.3125 14.3906 1.3125 13.9487V2.66667H1.09375C0.907813 2.66667 0.75199 2.60275 0.626281 2.4749C0.500427 2.34705 0.4375 2.18867 0.4375 1.99979C0.4375 1.81075 0.500427 1.65245 0.626281 1.5249C0.75199 1.39719 0.907813 1.33334 1.09375 1.33334H4.375C4.375 1.11571 4.45047 0.930231 4.60141 0.776898C4.7522 0.623712 4.93471 0.547119 5.14894 0.547119H8.85106C9.06529 0.547119 9.2478 0.623712 9.39859 0.776898C9.54953 0.930231 9.625 1.11571 9.625 1.33334H12.9062C13.0922 1.33334 13.248 1.39727 13.3737 1.52512C13.4996 1.65297 13.5625 1.81134 13.5625 2.00023C13.5625 2.18927 13.4996 2.34756 13.3737 2.47512C13.248 2.60282 13.0922 2.66667 12.9062 2.66667H12.6875V13.9487C12.6875 14.3906 12.5326 14.7689 12.2229 15.0836C11.9131 15.3982 11.5407 15.5556 11.1057 15.5556H2.89428ZM11.375 2.66667H2.625V13.9487C2.625 14.0285 2.65023 14.0941 2.70069 14.1453C2.75115 14.1966 2.81568 14.2222 2.89428 14.2222H11.1057C11.1843 14.2222 11.2489 14.1966 11.2993 14.1453C11.3498 14.0941 11.375 14.0285 11.375 13.9487V2.66667ZM5.85244 12.2529C5.978 12.125 6.04078 11.9667 6.04078 11.7778V5.11112C6.04078 4.92223 5.97785 4.76386 5.852 4.63601C5.72629 4.5083 5.5704 4.44445 5.38431 4.44445C5.19838 4.44445 5.04255 4.5083 4.91684 4.63601C4.79128 4.76386 4.7285 4.92223 4.7285 5.11112V11.7778C4.7285 11.9667 4.79135 12.125 4.91706 12.2529C5.04292 12.3806 5.19889 12.4445 5.38497 12.4445C5.57091 12.4445 5.72673 12.3806 5.85244 12.2529ZM9.08316 12.2529C9.20872 12.125 9.2715 11.9667 9.2715 11.7778V5.11112C9.2715 4.92223 9.20864 4.76386 9.08294 4.63601C8.95708 4.5083 8.80112 4.44445 8.61503 4.44445C8.42909 4.44445 8.27327 4.5083 8.14756 4.63601C8.022 4.76386 7.95922 4.92223 7.95922 5.11112V11.7778C7.95922 11.9667 8.02215 12.125 8.148 12.2529C8.27371 12.3806 8.4296 12.4445 8.61569 12.4445C8.80162 12.4445 8.95745 12.3806 9.08316 12.2529Z" fill="#CDCDCD"/>
</g>
<defs>
<clipPath id="clip0_7_109">
<rect width="14" height="16" fill="white"/>
</clipPath>
</defs>
</svg>
