<svg width="64" height="64" viewBox="0 0 64 64" fill="none" xmlns="http://www.w3.org/2000/svg">
<path d="M8.20533 62.2222C6.40918 62.2222 4.88888 61.6 3.64444 60.3555C2.39999 59.1111 1.77777 57.5908 1.77777 55.7947V8.20533C1.77777 6.40918 2.39999 4.88888 3.64444 3.64444C4.88888 2.39999 6.40918 1.77777 8.20533 1.77777H55.7947C57.5908 1.77777 59.1111 2.39999 60.3555 3.64444C61.6 4.88888 62.2222 6.40918 62.2222 8.20533V55.7947C62.2222 57.5908 61.6 59.1111 60.3555 60.3555C59.1111 61.6 57.5908 62.2222 55.7947 62.2222H8.20533ZM8.20533 56.8889H55.7947C56.0684 56.8889 56.3191 56.7748 56.5467 56.5467C56.7748 56.3191 56.8889 56.0684 56.8889 55.7947V8.20533C56.8889 7.93155 56.7748 7.68088 56.5467 7.45332C56.3191 7.22518 56.0684 7.1111 55.7947 7.1111H8.20533C7.93155 7.1111 7.68088 7.22518 7.45333 7.45332C7.22518 7.68088 7.1111 7.93155 7.1111 8.20533V55.7947C7.1111 56.0684 7.22518 56.3191 7.45333 56.5467C7.68088 56.7748 7.93155 56.8889 8.20533 56.8889ZM15.8773 15.8773C15.3665 16.3875 15.1111 17.021 15.1111 17.7778V46.2222C15.1111 46.979 15.3665 47.6124 15.8773 48.1227C16.3875 48.6335 17.021 48.8889 17.7778 48.8889C18.5345 48.8889 19.168 48.6335 19.6782 48.1227C20.189 47.6124 20.4444 46.979 20.4444 46.2222V17.7778C20.4444 17.021 20.189 16.3875 19.6782 15.8773C19.168 15.3665 18.5345 15.1111 17.7778 15.1111C17.021 15.1111 16.3875 15.3665 15.8773 15.8773ZM44.3218 15.8773C43.811 16.3875 43.5555 17.021 43.5555 17.7778V39.1111C43.5555 39.8678 43.811 40.5013 44.3218 41.0115C44.832 41.5224 45.4655 41.7778 46.2222 41.7778C46.979 41.7778 47.6124 41.5224 48.1227 41.0115C48.6335 40.5013 48.8889 39.8678 48.8889 39.1111V17.7778C48.8889 17.021 48.6335 16.3875 48.1227 15.8773C47.6124 15.3665 46.979 15.1111 46.2222 15.1111C45.4655 15.1111 44.832 15.3665 44.3218 15.8773ZM30.0995 15.8773C29.5887 16.3875 29.3333 17.021 29.3333 17.7778V28.4444C29.3333 29.2012 29.5887 29.8347 30.0995 30.3449C30.6098 30.8557 31.2433 31.1111 32 31.1111C32.7567 31.1111 33.3902 30.8557 33.9004 30.3449C34.4113 29.8347 34.6667 29.2012 34.6667 28.4444V17.7778C34.6667 17.021 34.4113 16.3875 33.9004 15.8773C33.3902 15.3665 32.7567 15.1111 32 15.1111C31.2433 15.1111 30.6098 15.3665 30.0995 15.8773Z" fill="#9654FF"/>
</svg>
